<svg width="800" height="200" viewBox="0 0 800 200" fill="none" xmlns="http://www.w3.org/2000/svg">
  <!-- Shield Background -->
  <defs>
    <linearGradient id="shieldGradient" x1="0%" y1="0%" x2="100%" y2="100%">
      <stop offset="0%" style="stop-color:#1E3A8A;stop-opacity:1" />
      <stop offset="50%" style="stop-color:#3B82F6;stop-opacity:1" />
      <stop offset="100%" style="stop-color:#1E40AF;stop-opacity:1" />
    </linearGradient>
    <linearGradient id="orangeGradient" x1="0%" y1="0%" x2="100%" y2="100%">
      <stop offset="0%" style="stop-color:#FB923C;stop-opacity:1" />
      <stop offset="100%" style="stop-color:#F97316;stop-opacity:1" />
    </linearGradient>
  </defs>
  
  <!-- Main Shield Shape -->
  <path d="M20 50 L20 120 Q20 140 35 150 L85 180 Q95 185 105 180 L155 150 Q170 140 170 120 L170 50 Q170 30 150 30 L40 30 Q20 30 20 50 Z" fill="url(#shieldGradient)" stroke="#0F172A" stroke-width="2"/>
  
  <!-- Orange Header Section -->
  <rect x="30" y="35" width="130" height="25" rx="5" fill="url(#orangeGradient)"/>
  
  <!-- AI Icon -->
  <circle cx="45" cy="47" r="6" fill="white"/>
  <text x="45" y="52" text-anchor="middle" font-family="Arial, sans-serif" font-size="8" font-weight="bold" fill="#F97316">AI</text>
  
  <!-- Analytics Charts -->
  <g transform="translate(65, 40)">
    <rect x="0" y="8" width="3" height="12" fill="white"/>
    <rect x="5" y="5" width="3" height="15" fill="white"/>
    <rect x="10" y="10" width="3" height="10" fill="white"/>
    <rect x="15" y="3" width="3" height="17" fill="white"/>
  </g>
  
  <!-- Gear Icon -->
  <g transform="translate(125, 42)">
    <circle cx="8" cy="8" r="6" fill="none" stroke="white" stroke-width="2"/>
    <circle cx="8" cy="8" r="3" fill="white"/>
    <path d="M8 2 L10 4 L8 6 L6 4 Z" fill="white"/>
    <path d="M14 8 L12 10 L10 8 L12 6 Z" fill="white"/>
    <path d="M8 14 L6 12 L8 10 L10 12 Z" fill="white"/>
    <path d="M2 8 L4 6 L6 8 L4 10 Z" fill="white"/>
  </g>
  
  <!-- Pencil/Content Icon -->
  <g transform="translate(40, 70)">
    <path d="M2 15 L5 12 L15 2 L18 5 L8 15 Z" fill="#FCD34D" stroke="#F59E0B" stroke-width="1"/>
    <rect x="1" y="14" width="4" height="4" fill="#92400E"/>
  </g>
  
  <!-- Data/Analytics Icon -->
  <g transform="translate(70, 75)">
    <rect x="0" y="0" width="20" height="12" rx="2" fill="white" stroke="#3B82F6"/>
    <path d="M3 3 L8 8 L12 4 L17 9" stroke="#3B82F6" stroke-width="2" fill="none"/>
    <circle cx="3" cy="3" r="1.5" fill="#3B82F6"/>
    <circle cx="8" cy="8" r="1.5" fill="#3B82F6"/>
    <circle cx="12" cy="4" r="1.5" fill="#3B82F6"/>
    <circle cx="17" cy="9" r="1.5" fill="#3B82F6"/>
  </g>
  
  <!-- Target/Goal Icon -->
  <g transform="translate(110, 70)">
    <circle cx="10" cy="10" r="8" fill="none" stroke="white" stroke-width="2"/>
    <circle cx="10" cy="10" r="5" fill="none" stroke="white" stroke-width="1.5"/>
    <circle cx="10" cy="10" r="2" fill="white"/>
  </g>
  
  <!-- Search/Analytics Icon -->
  <g transform="translate(45, 105)">
    <circle cx="8" cy="8" r="6" fill="none" stroke="#FCD34D" stroke-width="2"/>
    <path d="M12 12 L16 16" stroke="#FCD34D" stroke-width="2"/>
    <rect x="4" y="6" width="8" height="1" fill="#FCD34D"/>
    <rect x="4" y="8" width="6" height="1" fill="#FCD34D"/>
    <rect x="4" y="10" width="4" height="1" fill="#FCD34D"/>
  </g>
  
  <!-- Content Creation Icon -->
  <g transform="translate(85, 100)">
    <rect x="0" y="0" width="12" height="16" rx="1" fill="white" stroke="#3B82F6"/>
    <rect x="2" y="3" width="8" height="1" fill="#3B82F6"/>
    <rect x="2" y="5" width="6" height="1" fill="#3B82F6"/>
    <rect x="2" y="7" width="8" height="1" fill="#3B82F6"/>
    <rect x="2" y="9" width="5" height="1" fill="#3B82F6"/>
    <rect x="2" y="11" width="7" height="1" fill="#3B82F6"/>
  </g>
  
  <!-- Brain/AI Icon -->
  <g transform="translate(115, 105)">
    <path d="M2 8 Q2 4 6 4 Q10 4 10 6 Q14 6 14 10 Q14 14 10 14 Q6 14 6 12 Q2 12 2 8 Z" fill="#FCD34D"/>
    <circle cx="5" cy="7" r="1" fill="#F59E0B"/>
    <circle cx="9" cy="9" r="1" fill="#F59E0B"/>
    <path d="M6 10 Q7 11 8 10" stroke="#F59E0B" stroke-width="0.5" fill="none"/>
  </g>
  
  <!-- Text: MY CONTENT GENERATOR -->
  <text x="200" y="80" font-family="Arial, sans-serif" font-size="48" font-weight="bold" fill="#1E40AF">MY CONTENT</text>
  <text x="200" y="130" font-family="Arial, sans-serif" font-size="48" font-weight="bold" fill="#2563EB">GENERATOR</text>
</svg>